<svg width="16" height="16" viewBox="0 0 16 16" fill="none" xmlns="http://www.w3.org/2000/svg">
<mask id="mask0_12_13" style="mask-type:alpha" maskUnits="userSpaceOnUse" x="0" y="0" width="16" height="16">
<g clip-path="url(#clip0_12_13)">
<path d="M12.6451 9.91143C12.3175 9.57036 11.9224 9.38801 11.5037 9.38801C11.0883 9.38801 10.6898 9.56699 10.3488 9.90806L9.28166 10.9718C9.19386 10.9245 9.10606 10.8806 9.02164 10.8367C8.90007 10.7759 8.78526 10.7185 8.68733 10.6577C7.68776 10.0229 6.77937 9.19553 5.90813 8.12505C5.48602 7.5915 5.20236 7.14237 4.99636 6.68648C5.27327 6.43322 5.52992 6.16982 5.77981 5.91655C5.87436 5.82199 5.96891 5.72406 6.06347 5.62951C6.77262 4.92036 6.77262 4.00184 6.06347 3.29269L5.14157 2.37079C5.03689 2.26611 4.92883 2.15805 4.82752 2.04999C4.6249 1.84062 4.41216 1.6245 4.19266 1.42188C3.8651 1.0977 3.47338 0.925476 3.06139 0.925476C2.64941 0.925476 2.25094 1.0977 1.91325 1.42188C1.90987 1.42526 1.90987 1.42526 1.90649 1.42864L0.758343 2.58692C0.326098 3.01916 0.0795838 3.54596 0.0255532 4.15718C-0.0554926 5.14324 0.234922 6.06176 0.457798 6.66284C1.00486 8.13855 1.82207 9.5062 3.04113 10.9718C4.52022 12.7379 6.29985 14.1326 8.33275 15.1152C9.10944 15.4833 10.1462 15.919 11.3044 15.9932C11.3753 15.9966 11.4496 16 11.5172 16C12.2972 16 12.9524 15.7197 13.4657 15.1625C13.469 15.1558 13.4758 15.1524 13.4792 15.1456C13.6548 14.9329 13.8574 14.7404 14.0701 14.5344C14.2153 14.396 14.3639 14.2508 14.5091 14.0988C14.8434 13.751 15.019 13.3457 15.019 12.9304C15.019 12.5117 14.8401 12.1098 14.499 11.7721L12.6451 9.91143ZM13.854 13.4673C13.8506 13.4673 13.8506 13.4707 13.854 13.4673C13.7223 13.6091 13.5872 13.7375 13.442 13.8793C13.2225 14.0887 12.9996 14.3082 12.7903 14.5547C12.4492 14.9194 12.0474 15.0916 11.5206 15.0916C11.4699 15.0916 11.4159 15.0916 11.3652 15.0882C10.3623 15.0241 9.43025 14.6324 8.73123 14.298C6.8199 13.3728 5.14157 12.0591 3.74691 10.3943C2.59538 9.00642 1.82545 7.72319 1.31553 6.34542C1.00148 5.50457 0.886665 4.84944 0.937319 4.23147C0.971088 3.83637 1.12305 3.50881 1.40333 3.22853L2.55486 2.077C2.72033 1.92166 2.89593 1.83724 3.06815 1.83724C3.28089 1.83724 3.45312 1.96556 3.56118 2.07363C3.56455 2.077 3.56793 2.08038 3.57131 2.08376C3.7773 2.27624 3.97316 2.47548 4.17915 2.68822C4.28384 2.79628 4.3919 2.90435 4.49996 3.01578L5.42185 3.93768C5.77981 4.29563 5.77981 4.62657 5.42185 4.98452C5.32392 5.08245 5.22937 5.18038 5.13144 5.27493C4.84778 5.56535 4.57763 5.8355 4.28384 6.0989C4.27708 6.10565 4.27033 6.10903 4.26695 6.11579C3.97654 6.4062 4.03057 6.68986 4.09135 6.88234C4.09473 6.89247 4.09811 6.90261 4.10148 6.91274C4.34124 7.49356 4.67893 8.04062 5.19222 8.69237L5.1956 8.69574C6.12763 9.84389 7.11031 10.7388 8.1943 11.4243C8.33275 11.5121 8.47458 11.583 8.60966 11.6505C8.73123 11.7113 8.84604 11.7687 8.94397 11.8295C8.95748 11.8363 8.97099 11.8464 8.9845 11.8532C9.09931 11.9106 9.20737 11.9376 9.31881 11.9376C9.59909 11.9376 9.77469 11.762 9.8321 11.7046L10.987 10.5497C11.1018 10.4349 11.2842 10.2964 11.4969 10.2964C11.7063 10.2964 11.8785 10.4281 11.9832 10.5429C11.9866 10.5463 11.9866 10.5463 11.9899 10.5497L13.8506 12.4103C14.1984 12.7548 14.1984 13.1094 13.854 13.4673Z" fill="black"/>
<path d="M8.6468 3.80597C9.53155 3.95456 10.3352 4.37329 10.9769 5.01491C11.6185 5.65652 12.0338 6.46022 12.1858 7.34497C12.2229 7.56785 12.4154 7.72319 12.6349 7.72319C12.6619 7.72319 12.6856 7.71981 12.7126 7.71643C12.9625 7.67591 13.128 7.43953 13.0874 7.18964C12.9051 6.11916 12.3985 5.14323 11.6252 4.36992C10.8519 3.5966 9.87599 3.09007 8.80551 2.90771C8.55562 2.86719 8.32261 3.03266 8.27871 3.27917C8.23481 3.52569 8.3969 3.76545 8.6468 3.80597Z" fill="black"/>
<path d="M15.9814 7.05794C15.6809 5.29519 14.8502 3.69116 13.5737 2.41469C12.2972 1.13821 10.6932 0.307495 8.93046 0.00695018C8.68395 -0.0369496 8.45094 0.131896 8.40704 0.37841C8.36652 0.628302 8.53199 0.861308 8.78188 0.905208C10.3555 1.17198 11.7907 1.91828 12.9321 3.0563C14.0735 4.1977 14.8164 5.63288 15.0832 7.20652C15.1203 7.4294 15.3128 7.58474 15.5323 7.58474C15.5593 7.58474 15.583 7.58136 15.61 7.57798C15.8565 7.54084 16.0253 7.30445 15.9814 7.05794Z" fill="black"/>
</g>
</mask>
<g mask="url(#mask0_12_13)">
<rect x="-6.30304" y="-56.7273" width="90.6667" height="83.8788" fill="white"/>
</g>
<defs>
<clipPath id="clip0_12_13">
<rect width="16" height="16" fill="white"/>
</clipPath>
</defs>
</svg>
